# xmcd
#
# Track frame offsets: 
#        150
#        19534
#        36162
#        57674
#        80889
#        98050
#        109427
#        124344
#        136626
#
# Disc length: 1998 seconds
#
# Revision: 0
# Processed by: cddbd v1.5.2PL0 Copyright (c) Steve Scherf et al.
# Submitted via: ExactAudioCopy v0.99pb4
#
DISCID=7a07cc09
DTITLE=The Chi-Lites - For God's Sake (Give More Power To The People)
DYEAR=1971
DGENRE=R&B
TTITLE0=Yes I'm Ready (If I Don't Get To Go)
TTITLE1=We Are Neighbors
TTITLE2=I Want To Pay You Back (For Loving Me)
TTITLE3=Have You Seen Her?
TTITLE4=(For God's Sake) Give More Power To The People
TTITLE5=Love Uprising
TTITLE6=Trouble's A Comin'
TTITLE7=You Got Me Walkin'
TTITLE8=What Do I Wish For
EXTD=
EXTT0=
EXTT1=
EXTT2=
EXTT3=
EXTT4=
EXTT5=
EXTT6=
EXTT7=
EXTT8=
PLAYORDER=
